<svg width="16" height="18" viewBox="0 0 16 18" fill="none" xmlns="http://www.w3.org/2000/svg">
<g id="SVG" clip-path="url(#clip0_7_1307)">
<path id="Vector" d="M2.52707 2.3939C3.97857 0.942397 5.94723 0.126953 7.99996 0.126953C10.0527 0.126953 12.0213 0.942397 13.4728 2.3939C14.9243 3.8454 15.7398 5.81406 15.7398 7.86679C15.7398 9.91952 14.9243 11.8882 13.4728 13.3397L12.4177 14.3832C11.64 15.1468 10.6311 16.1281 9.39018 17.3272C9.01723 17.6878 8.51874 17.8894 7.99996 17.8894C7.48118 17.8894 6.98269 17.6878 6.60974 17.3272L3.50751 14.3086C3.1164 13.9263 2.79018 13.6028 2.52707 13.3397C1.80833 12.621 1.23819 11.7678 0.849202 10.8287C0.460218 9.88967 0.26001 8.88321 0.26001 7.86679C0.26001 6.85037 0.460218 5.8439 0.849202 4.90486C1.23819 3.96582 1.80833 3.11259 2.52707 2.3939ZM12.5306 3.3379C11.3293 2.13641 9.6998 1.46137 8.00072 1.46129C6.30164 1.46121 4.67211 2.13608 3.47063 3.33745C2.26914 4.53883 1.5941 6.16828 1.59402 7.86736C1.59393 9.56644 2.26881 11.196 3.47018 12.3975L4.79196 13.7015C5.51996 14.4143 6.43463 15.3032 7.53685 16.369C7.66118 16.4893 7.8274 16.5566 8.0004 16.5566C8.1734 16.5566 8.33963 16.4893 8.46396 16.369L11.4817 13.4348C11.8986 13.0259 12.248 12.6792 12.5306 12.3975C13.1256 11.8026 13.5976 11.0963 13.9196 10.319C14.2416 9.54171 14.4073 8.70859 14.4073 7.86723C14.4073 7.02587 14.2416 6.19276 13.9196 5.41545C13.5976 4.63815 13.1256 3.93189 12.5306 3.33701V3.3379ZM7.99996 5.44368C8.35442 5.43721 8.70662 5.50143 9.03599 5.63261C9.36535 5.76378 9.66527 5.95927 9.91824 6.20766C10.1712 6.45605 10.3721 6.75235 10.5093 7.07927C10.6465 7.40618 10.7171 7.75715 10.7171 8.11168C10.7171 8.4662 10.6465 8.81717 10.5093 9.14408C10.3721 9.471 10.1712 9.7673 9.91824 10.0157C9.66527 10.2641 9.36535 10.4596 9.03599 10.5907C8.70662 10.7219 8.35442 10.7861 7.99996 10.7797C7.3044 10.7617 6.64337 10.4728 6.15776 9.97449C5.67215 9.47618 5.40038 8.80791 5.40038 8.11212C5.40038 7.41633 5.67215 6.74806 6.15776 6.24975C6.64337 5.75145 7.3044 5.46163 7.99996 5.44368ZM7.99996 6.77701C7.82179 6.77241 7.6445 6.80353 7.47855 6.86854C7.3126 6.93354 7.16135 7.03112 7.0337 7.15551C6.90606 7.2799 6.80462 7.42859 6.73535 7.59281C6.66609 7.75702 6.6304 7.93345 6.6304 8.11168C6.6304 8.2899 6.66609 8.46633 6.73535 8.63055C6.80462 8.79477 6.90606 8.94345 7.0337 9.06784C7.16135 9.19223 7.3126 9.28981 7.47855 9.35481C7.6445 9.41982 7.82179 9.45094 7.99996 9.44634C8.34539 9.43373 8.67246 9.28764 8.91238 9.03881C9.1523 8.78997 9.28636 8.45778 9.28636 8.11212C9.28636 7.76646 9.1523 7.43427 8.91238 7.18544C8.67246 6.9366 8.34539 6.78962 7.99996 6.77701Z" fill="#208CFB"/>
</g>
<defs>
<clipPath id="clip0_7_1307">
<rect width="16" height="18" fill="white"/>
</clipPath>
</defs>
</svg>
