<svg width="20" height="16" viewBox="0 0 20 16" fill="none" xmlns="http://www.w3.org/2000/svg">
<g id="SVG" clip-path="url(#clip0_7_1350)">
<path id="Vector" d="M0.29196 4.79311L4.28696 0.793105C4.45915 0.620929 4.68825 0.517498 4.93128 0.502216C5.1743 0.486935 5.41456 0.560854 5.60696 0.710105L5.70096 0.793105L9.70696 4.79311C9.89034 4.97217 9.99797 5.21481 10.0076 5.47093C10.0173 5.72706 9.92821 5.97711 9.75882 6.16946C9.58944 6.36182 9.35266 6.48179 9.09737 6.50461C8.84208 6.52744 8.58778 6.45136 8.38696 6.29211L8.29296 6.20911L5.99996 3.91711V14.5011C5.99993 14.746 5.91 14.9824 5.74724 15.1655C5.58449 15.3485 5.36021 15.4654 5.11696 15.4941L4.99996 15.5001C4.75487 15.5 4.51834 15.41 4.33529 15.247C4.15223 15.0841 4.03539 14.8595 4.00696 14.6161L3.99996 14.5011V3.91011L1.70696 6.20711C1.53489 6.37943 1.30586 6.48305 1.06283 6.49851C0.819802 6.51398 0.579481 6.44023 0.38696 6.29111L0.29196 6.20711C0.119636 6.03504 0.0160205 5.80601 0.000555022 5.56298C-0.0149105 5.31995 0.0588368 5.07963 0.20796 4.88711L0.29196 4.79311ZM14.883 0.510105L15 0.503105C15.245 0.503166 15.4816 0.59323 15.6646 0.756194C15.8477 0.919158 15.9645 1.14367 15.993 1.38711L16 1.50311V12.0871L18.293 9.79311C18.465 9.62078 18.6941 9.51717 18.9371 9.5017C19.1801 9.48623 19.4204 9.55998 19.613 9.7091L19.707 9.79311C19.8793 9.96517 19.9829 10.1942 19.9984 10.4372C20.0138 10.6803 19.9401 10.9206 19.791 11.1131L19.707 11.2071L15.711 15.2071C15.5389 15.3794 15.3099 15.483 15.0668 15.4985C14.8238 15.514 14.5835 15.4402 14.391 15.2911L14.297 15.2071L10.293 11.2071C10.1117 11.0276 10.0059 10.7855 9.99728 10.5306C9.98863 10.2756 10.0778 10.0269 10.2464 9.83552C10.4151 9.64411 10.6505 9.5244 10.9046 9.5009C11.1586 9.4774 11.412 9.55188 11.613 9.7091L11.707 9.79311L14 12.0831V1.50311C14 1.25817 14.0899 1.02177 14.2527 0.838733C14.4154 0.655698 14.6397 0.538763 14.883 0.510105Z" fill="#208CFB"/>
</g>
<defs>
<clipPath id="clip0_7_1350">
<rect width="20" height="16" fill="white"/>
</clipPath>
</defs>
</svg>
