<svg width="33" height="33" viewBox="0 0 33 33" fill="none" xmlns="http://www.w3.org/2000/svg">
<g id="SVG" clip-path="url(#clip0_7_1152)">
<path id="Vector" d="M32.1396 13.8115C31.9153 12.8882 29.0213 12.6936 29.0213 12.6936C28.7437 12.1904 27.7868 12.0553 26.2562 12.4259C26.1335 12.4556 25.9984 12.4878 25.8534 12.5238L25.8497 12.5114L10.1886 16.3089L7.11618 15.7474L2.15487 13.0827C2.09166 13.0456 2.01606 13.0344 1.94417 13.0518L0.480443 13.4062C0.43678 13.4168 0.396283 13.4377 0.362321 13.4671C0.328358 13.4966 0.301912 13.5337 0.285182 13.5754C0.268453 13.6171 0.261923 13.6622 0.266136 13.7069C0.270349 13.7516 0.285184 13.7947 0.309406 13.8326L2.75598 18.1097L0.780377 18.6873C0.682465 18.7108 0.677507 18.8497 0.775419 18.8794L2.83158 19.6714C3.0869 20.7236 4.74025 20.9802 4.74025 20.9802C9.55531 21.2392 14.4299 20.4609 16.3237 20.1089C17.9287 21.2665 21.8018 20.1808 21.8018 20.1808C23.0598 19.5524 23.3275 18.9005 23.3213 18.4493L26.9577 17.5681L27.1733 17.5161L27.1709 17.5061C31.8434 16.1465 32.3441 14.6568 32.1396 13.8115ZM13.0963 19.0145C12.6885 19.1112 12.2609 18.7778 12.1407 18.2709C12.0217 17.7639 12.256 17.2744 12.6637 17.1789C13.0715 17.0823 13.4991 17.4157 13.6193 17.9226C13.7383 18.4295 13.504 18.9191 13.0963 19.0145ZM15.787 18.3118C15.3792 18.4084 14.9516 18.075 14.8314 17.5681C14.7124 17.0612 14.9467 16.5716 15.3545 16.4762C15.7622 16.3808 16.1898 16.7129 16.31 17.2198C16.429 17.7268 16.196 18.2151 15.787 18.3118ZM18.479 17.6078C18.0712 17.7045 17.6436 17.3711 17.5234 16.8641C17.4044 16.3572 17.6387 15.8677 18.0464 15.7722C18.4542 15.6768 18.8818 16.009 19.002 16.5159C19.121 17.0228 18.8867 17.5123 18.479 17.6078ZM21.1709 16.9038C20.7632 17.0005 20.3356 16.6671 20.2154 16.1602C20.0964 15.6532 20.3306 15.1637 20.7384 15.0683C21.1462 14.9716 21.5737 15.305 21.694 15.8119C21.813 16.3188 21.5787 16.8084 21.1709 16.9038ZM27.6728 14.4349L24.3277 15.2219C23.7972 15.3471 23.2618 15.015 23.1366 14.4845C23.1218 14.4188 23.1131 14.3531 23.1106 14.2887C23.1069 14.1734 23.185 14.0705 23.2965 14.0408L25.4196 13.4756L25.4233 13.4868C25.5572 13.4508 25.6836 13.4174 25.7964 13.3876C27.2167 13.0096 28.1116 13.1162 28.3805 13.5797C28.3322 13.9825 28.0893 14.337 27.6728 14.4349Z" fill="#ACACAF"/>
</g>
<defs>
<clipPath id="clip0_7_1152">
<rect width="32" height="32" fill="white" transform="translate(0.25 0.25)"/>
</clipPath>
</defs>
</svg>
