<svg width="33" height="33" viewBox="0 0 33 33" fill="none" xmlns="http://www.w3.org/2000/svg">
<g id="SVG">
<path id="Vector" d="M21.5086 22.4712C21.5086 23.8382 22.6154 24.945 23.9824 24.945C25.3495 24.945 26.4563 23.8382 26.4563 22.4712C26.4563 21.1041 25.3483 19.9973 23.9824 19.9973C22.6154 19.9986 21.5086 21.1053 21.5086 22.4712ZM22.9079 22.4712C22.9079 21.8775 23.3888 21.3966 23.9837 21.3966C24.5774 21.3966 25.0582 21.8775 25.0582 22.4712C25.0582 23.0661 24.5774 23.5469 23.9837 23.5469C23.3888 23.5469 22.9079 23.0661 22.9079 22.4712ZM6.98535 22.4712C6.98535 23.8382 8.09213 24.945 9.45919 24.945C10.825 24.945 11.933 23.8382 11.933 22.4712C11.933 21.1041 10.825 19.9973 9.45919 19.9973C8.09213 19.9986 6.98535 21.1053 6.98535 22.4712ZM8.38463 22.4712C8.38463 21.8775 8.86552 21.3966 9.46043 21.3966C10.0541 21.3966 10.535 21.8775 10.535 22.4712C10.535 23.0661 10.0541 23.5469 9.46043 23.5469C8.86552 23.5469 8.38463 23.0661 8.38463 22.4712Z" fill="#ACACAF"/>
<path id="Vector_2" d="M3.25977 11.4591V20.9938C3.25977 21.8068 3.92532 22.4724 4.73713 22.4724H6.54169C6.54169 20.8636 7.85049 19.5548 9.45923 19.5548C11.068 19.5548 12.3768 20.8636 12.3768 22.4724H21.0649C21.0649 20.8636 22.3738 19.5548 23.9825 19.5548C25.5912 19.5548 26.9 20.8636 26.9 22.4724H28.4071C29.2202 22.4724 29.8857 21.8068 29.8857 20.9938V17.5929C29.8857 16.7798 29.7531 15.4636 29.5895 14.6666L28.7021 11.4281C28.5398 10.6312 27.7416 9.97925 26.9285 9.97925H4.73837C3.92532 9.98049 3.25977 10.6448 3.25977 11.4591ZM23.7433 10.8654H26.672C27.2818 10.8654 27.8717 11.3562 27.982 11.9561L28.7777 15.1277C28.8719 15.6346 28.5943 16.0622 28.1369 16.1824L27.4602 14.5799C27.4378 14.5262 27.405 14.4774 27.3637 14.4364C27.3223 14.3955 27.2732 14.3631 27.2193 14.3412C27.1654 14.3193 27.1076 14.3083 27.0494 14.3089C26.9912 14.3094 26.9337 14.3215 26.8802 14.3444C26.772 14.3901 26.6864 14.4768 26.642 14.5855C26.5976 14.6942 26.5981 14.8161 26.6435 14.9244L27.1888 16.2171H23.7445V10.8654H23.7433ZM17.1646 10.8654H22.8559V16.2171H17.1646V10.8654ZM10.5858 10.8654H16.2772V16.2171H10.5858V10.8654ZM4.167 11.9747C4.167 11.3649 4.66648 10.8654 5.27627 10.8654H9.70091V16.2171H5.27627C4.66648 16.2171 4.167 15.7189 4.167 15.1091V11.9747Z" fill="#ACACAF"/>
</g>
</svg>
