a<svg width="18" height="18" viewBox="0 0 18 18" fill="none" xmlns="http://www.w3.org/2000/svg">
<g id="SVG" clip-path="url(#clip0_7_1320)">
<path id="Vector" d="M14.75 0C15.612 0 16.4386 0.34241 17.0481 0.951903C17.6576 1.5614 18 2.38805 18 3.25V14.75C18 15.612 17.6576 16.4386 17.0481 17.0481C16.4386 17.6576 15.612 18 14.75 18H3.25C2.38805 18 1.5614 17.6576 0.951903 17.0481C0.34241 16.4386 0 15.612 0 14.75L0 3.25C0 2.38805 0.34241 1.5614 0.951903 0.951903C1.5614 0.34241 2.38805 0 3.25 0L14.75 0ZM16.5 5.5H1.5V14.75C1.5 15.716 2.284 16.5 3.25 16.5H14.75C15.2141 16.5 15.6592 16.3156 15.9874 15.9874C16.3156 15.6592 16.5 15.2141 16.5 14.75V5.5ZM4.75 11.5C5.08152 11.5 5.39946 11.6317 5.63388 11.8661C5.8683 12.1005 6 12.4185 6 12.75C6 13.0815 5.8683 13.3995 5.63388 13.6339C5.39946 13.8683 5.08152 14 4.75 14C4.41848 14 4.10054 13.8683 3.86612 13.6339C3.6317 13.3995 3.5 13.0815 3.5 12.75C3.5 12.4185 3.6317 12.1005 3.86612 11.8661C4.10054 11.6317 4.41848 11.5 4.75 11.5ZM9 11.5C9.33152 11.5 9.64946 11.6317 9.88388 11.8661C10.1183 12.1005 10.25 12.4185 10.25 12.75C10.25 13.0815 10.1183 13.3995 9.88388 13.6339C9.64946 13.8683 9.33152 14 9 14C8.66848 14 8.35054 13.8683 8.11612 13.6339C7.8817 13.3995 7.75 13.0815 7.75 12.75C7.75 12.4185 7.8817 12.1005 8.11612 11.8661C8.35054 11.6317 8.66848 11.5 9 11.5ZM4.75 7.5C5.08152 7.5 5.39946 7.6317 5.63388 7.86612C5.8683 8.10054 6 8.41848 6 8.75C6 9.08152 5.8683 9.39946 5.63388 9.63388C5.39946 9.8683 5.08152 10 4.75 10C4.41848 10 4.10054 9.8683 3.86612 9.63388C3.6317 9.39946 3.5 9.08152 3.5 8.75C3.5 8.41848 3.6317 8.10054 3.86612 7.86612C4.10054 7.6317 4.41848 7.5 4.75 7.5ZM9 7.5C9.33152 7.5 9.64946 7.6317 9.88388 7.86612C10.1183 8.10054 10.25 8.41848 10.25 8.75C10.25 9.08152 10.1183 9.39946 9.88388 9.63388C9.64946 9.8683 9.33152 10 9 10C8.66848 10 8.35054 9.8683 8.11612 9.63388C7.8817 9.39946 7.75 9.08152 7.75 8.75C7.75 8.41848 7.8817 8.10054 8.11612 7.86612C8.35054 7.6317 8.66848 7.5 9 7.5ZM13.25 7.5C13.5815 7.5 13.8995 7.6317 14.1339 7.86612C14.3683 8.10054 14.5 8.41848 14.5 8.75C14.5 9.08152 14.3683 9.39946 14.1339 9.63388C13.8995 9.8683 13.5815 10 13.25 10C12.9185 10 12.6005 9.8683 12.3661 9.63388C12.1317 9.39946 12 9.08152 12 8.75C12 8.41848 12.1317 8.10054 12.3661 7.86612C12.6005 7.6317 12.9185 7.5 13.25 7.5ZM14.75 1.5H3.25C2.78587 1.5 2.34075 1.68437 2.01256 2.01256C1.68437 2.34075 1.5 2.78587 1.5 3.25V4H16.5V3.25C16.5 2.78587 16.3156 2.34075 15.9874 2.01256C15.6592 1.68437 15.2141 1.5 14.75 1.5Z" fill="#208CFB"/>
</g>
<defs>
<clipPath id="clip0_7_1320">
<rect width="18" height="18" fill="white"/>
</clipPath>
</defs>
</svg>
