<svg xmlns="http://www.w3.org/2000/svg" width="16" height="18" viewBox="0 0 16 18" fill="none">
  <path d="M8 10.4545C8.38577 10.4545 8.75574 10.3013 9.02852 10.0285C9.3013 9.75569 9.45455 9.38573 9.45455 8.99996C9.45455 8.61419 9.3013 8.24422 9.02852 7.97144C8.75574 7.69866 8.38577 7.54541 8 7.54541C7.61423 7.54541 7.24426 7.69866 6.97148 7.97144C6.6987 8.24422 6.54546 8.61419 6.54546 8.99996C6.54546 9.38573 6.6987 9.75569 6.97148 10.0285C7.24426 10.3013 7.61423 10.4545 8 10.4545Z" fill="#E7EEF6"/>
  <path fill-rule="evenodd" clip-rule="evenodd" d="M0.725815 9.00001C0.725815 4.98256 3.98254 1.72583 8 1.72583C12.0175 1.72583 15.2742 4.98256 15.2742 9.00001C15.2742 13.0175 12.0175 16.2742 8 16.2742C3.98254 16.2742 0.725815 13.0175 0.725815 9.00001ZM8 2.81674C6.36009 2.81674 4.78735 3.46819 3.62776 4.62778C2.46817 5.78737 1.81672 7.36011 1.81672 9.00001C1.81672 10.6399 2.46817 12.2127 3.62776 13.3722C4.78735 14.5318 6.36009 15.1833 8 15.1833C9.6399 15.1833 11.2126 14.5318 12.3722 13.3722C13.5318 12.2127 14.1833 10.6399 14.1833 9.00001C14.1833 7.36011 13.5318 5.78737 12.3722 4.62778C11.2126 3.46819 9.6399 2.81674 8 2.81674Z" fill="#E7EEF6"/>
</svg>