<svg width="16" height="18" viewBox="0 0 16 18" fill="none" xmlns="http://www.w3.org/2000/svg">
<g id="SVG">
<path id="Vector" d="M7.99996 10.4545C8.38573 10.4545 8.75569 10.3013 9.02847 10.0285C9.30125 9.75569 9.4545 9.38573 9.4545 8.99996C9.4545 8.61419 9.30125 8.24422 9.02847 7.97144C8.75569 7.69866 8.38573 7.54541 7.99996 7.54541C7.61419 7.54541 7.24422 7.69866 6.97144 7.97144C6.69866 8.24422 6.54541 8.61419 6.54541 8.99996C6.54541 9.38573 6.69866 9.75569 6.97144 10.0285C7.24422 10.3013 7.61419 10.4545 7.99996 10.4545Z" fill="#208CFB"/>
<path id="Vector_2" fill-rule="evenodd" clip-rule="evenodd" d="M0.72583 9.00001C0.72583 4.98256 3.98256 1.72583 8.00001 1.72583C12.0175 1.72583 15.2742 4.98256 15.2742 9.00001C15.2742 13.0175 12.0175 16.2742 8.00001 16.2742C3.98256 16.2742 0.72583 13.0175 0.72583 9.00001ZM8.00001 2.81674C6.36011 2.81674 4.78737 3.46819 3.62778 4.62778C2.46819 5.78737 1.81674 7.36011 1.81674 9.00001C1.81674 10.6399 2.46819 12.2127 3.62778 13.3722C4.78737 14.5318 6.36011 15.1833 8.00001 15.1833C9.63992 15.1833 11.2127 14.5318 12.3722 13.3722C13.5318 12.2127 14.1833 10.6399 14.1833 9.00001C14.1833 7.36011 13.5318 5.78737 12.3722 4.62778C11.2127 3.46819 9.63992 2.81674 8.00001 2.81674Z" fill="#208CFB"/>
</g>
</svg>
