<svg width="17" height="17" viewBox="0 0 17 17" fill="none" xmlns="http://www.w3.org/2000/svg">
<g id="SVG">
<path id="Vector" d="M10.8206 5.16667C10.8206 5.87391 10.5397 6.55219 10.0396 7.05229C9.53949 7.55238 8.86122 7.83333 8.15397 7.83333C7.44673 7.83333 6.76845 7.55238 6.26835 7.05229C5.76826 6.55219 5.4873 5.87391 5.4873 5.16667C5.4873 4.45942 5.76826 3.78115 6.26835 3.28105C6.76845 2.78095 7.44673 2.5 8.15397 2.5C8.86122 2.5 9.53949 2.78095 10.0396 3.28105C10.5397 3.78115 10.8206 4.45942 10.8206 5.16667ZM8.15397 9.83333C6.91629 9.83333 5.72931 10.325 4.85414 11.2002C3.97897 12.0753 3.4873 13.2623 3.4873 14.5H12.8206C12.8206 13.2623 12.329 12.0753 11.4538 11.2002C10.5786 10.325 9.39165 9.83333 8.15397 9.83333Z" stroke="#6F6F6F" stroke-width="1.33333" stroke-linecap="round" stroke-linejoin="round"/>
</g>
</svg>
