<svg width="42" height="19" viewBox="0 0 42 19" fill="none" xmlns="http://www.w3.org/2000/svg">
<g id="image" clip-path="url(#clip0_7_1467)">
<g id="g10">
<g id="g4709">
<g id="g4704">
<path id="path30" d="M2.69984 1.14369H1.44373V0.652389H4.50285V1.14369H3.23681V4.5769H2.69984V1.14369Z" fill="#63675C"/>
<path id="path32" d="M8.42899 2.38386V4.32136C8.3256 4.3808 8.21725 4.42436 8.09898 4.47389C7.96603 4.51746 7.84776 4.56303 7.70985 4.59275C7.57689 4.62246 7.44374 4.63633 7.31078 4.65021C7.17287 4.66605 7.0546 4.67993 6.93633 4.67993C6.59165 4.67993 6.29597 4.62248 6.03979 4.51748C5.78857 4.39465 5.56195 4.24803 5.38474 4.06974C5.20238 3.87361 5.05454 3.65175 4.96604 3.39619C4.87734 3.16044 4.83289 2.89101 4.83289 2.60573C4.83289 2.32441 4.87734 2.05498 4.98073 1.79942C5.08411 1.54782 5.21726 1.32198 5.39943 1.14368C5.57683 0.953495 5.80345 0.814837 6.05467 0.697954C6.29597 0.592955 6.57676 0.549369 6.8774 0.549369C7.23201 0.549369 7.53244 0.592942 7.76898 0.6821C7.9956 0.771246 8.18768 0.888132 8.34028 1.05652L7.96603 1.45869C7.80351 1.30615 7.63583 1.20311 7.44374 1.14368C7.26157 1.07038 7.06948 1.04067 6.8774 1.04067C6.65078 1.04067 6.44381 1.08622 6.26641 1.1734C6.08424 1.24868 5.92172 1.36556 5.80345 1.50423C5.66554 1.65083 5.56195 1.81328 5.50282 2.0094C5.429 2.1877 5.39943 2.39772 5.39943 2.60573C5.39943 2.83157 5.429 3.03761 5.50282 3.23373C5.59152 3.4259 5.6951 3.59428 5.83302 3.72702C5.96597 3.87362 6.12849 3.97662 6.31085 4.05587C6.50294 4.14501 6.69503 4.17473 6.92165 4.17473C7.11374 4.17473 7.2961 4.15889 7.45862 4.12918C7.62114 4.08561 7.76898 4.04204 7.89201 3.97666V2.87516H7.01035V2.38386H8.42899Z" fill="#63675C"/>
<path id="path34" d="M8.86255 0.652389H9.47334L10.6211 3.84391H10.636L11.828 0.652389H12.4291L10.8773 4.5769H10.3699L8.86255 0.652389Z" fill="#63675C"/>
</g>
<g id="g4695">
<path id="path36" d="M6.42888 9.91815C6.42888 8.8755 7.28117 8.02483 8.32555 8.02483C9.36993 8.02483 10.2319 8.8755 10.2319 9.91815V15.5591H12.4291V9.91815C12.4291 7.66565 10.5915 5.81712 8.32555 5.81712C6.06931 5.81712 4.22205 7.66565 4.22205 9.91815V15.5591H6.42888V9.91815Z" fill="#63675C"/>
<path id="path38" d="M1.562 6.2647C1.22207 7.72456 1.03971 9.24922 1.02502 10.8131C1.02502 10.8426 1.02502 13.8721 1.02502 13.8721C1.08416 13.8279 1.15798 13.7835 1.22207 13.7393C1.50286 13.5917 1.81818 13.4836 2.15811 13.4836C2.56193 13.4836 2.93638 13.6213 3.2517 13.8425V6.2647H1.562Z" fill="#63675C"/>
<path id="path40" d="M2.15806 14.3345C1.47325 14.3345 0.936279 14.8904 0.936279 15.5592C0.936279 16.2476 1.47325 16.7837 2.15806 16.7837C2.83295 16.7837 3.38461 16.2476 3.38461 15.5592C3.38461 14.8904 2.83295 14.3345 2.15806 14.3345Z" fill="#930C38"/>
<path id="path42" d="M35.557 11.9049C35.557 12.9476 34.7057 13.7985 33.66 13.7985C32.6162 13.7985 31.7689 12.9476 31.7689 11.9049V6.26479H29.5563V11.9049C29.5563 14.1574 31.4097 16.0066 33.66 16.0066C35.9321 16.0066 37.7637 14.1574 37.7637 11.9049V6.26479H35.557V11.9049Z" fill="#930C38"/>
<path id="path44" d="M39.8274 7.48877C40.512 7.48877 41.0637 6.93305 41.0637 6.26483C41.0637 5.57541 40.512 5.04053 39.8274 5.04053C39.1527 5.04053 38.6011 5.57541 38.6011 6.26483C38.6011 6.93305 39.1527 7.48877 39.8274 7.48877Z" fill="#930C38"/>
<path id="path46" d="M40.4247 15.5591C40.764 14.0984 40.9605 12.5738 40.9605 11.0099C40.9605 10.9804 40.9605 7.95093 40.9605 7.95093C40.9029 7.99531 40.8275 8.03949 40.764 8.08366C40.4842 8.23125 40.1687 8.33467 39.8274 8.33467C39.4246 8.33467 39.0495 8.20174 38.7499 7.98046V15.5591H40.4247Z" fill="#930C38"/>
<path id="path48" d="M20.9957 5.8171C23.7976 5.8171 26.0836 8.0985 26.0836 10.9164C26.0836 13.7246 23.7976 16.0066 20.9957 16.0066C18.1878 16.0066 15.9017 13.7246 15.9017 10.9164C15.9017 8.0985 18.1878 5.8171 20.9957 5.8171ZM20.9957 18.5C25.1887 18.5 28.5859 15.0967 28.5859 10.9164C28.5859 6.7264 25.1887 3.3229 20.9957 3.3229C16.8126 3.3229 13.4133 6.7264 13.4133 10.9164C13.4133 15.0967 16.8126 18.5 20.9957 18.5Z" fill="#930C38"/>
</g>
</g>
</g>
</g>
<defs>
<clipPath id="clip0_7_1467">
<rect width="40.1274" height="18" fill="white" transform="translate(0.936279 0.5)"/>
</clipPath>
</defs>
</svg>
