<svg width="21" height="21" viewBox="0 0 21 21" fill="none" xmlns="http://www.w3.org/2000/svg">
<g id="SVG" clip-path="url(#clip0_7_1338)">
<g id="Group">
<path id="Vector" d="M16.0601 10.0793C15.6067 10.0793 15.2212 9.92265 14.9045 9.60876C14.7507 9.46147 14.6289 9.28398 14.5469 9.08743C14.4649 8.89087 14.4243 8.67949 14.4278 8.46654C14.4278 8.01876 14.5867 7.63765 14.9039 7.32432C15.2217 7.01043 15.6067 6.85376 16.0601 6.85376C16.5134 6.85376 16.8989 7.01043 17.2162 7.32432C17.5334 7.63765 17.6923 8.01876 17.6923 8.46654C17.6923 8.91432 17.5334 9.29543 17.2162 9.60876C16.8989 9.92265 16.5134 10.0793 16.0606 10.0793H16.0601ZM16.0601 11.2521C16.8328 11.2521 17.6445 11.4138 18.4945 11.7376C19.3445 12.0615 19.7695 12.486 19.7695 13.0115V13.891H12.3512V13.011C12.3512 12.4854 12.7762 12.061 13.6262 11.7371C14.4762 11.4132 15.2873 11.2515 16.0601 11.2515V11.2521ZM4.48728 10.0793C4.03394 10.0793 3.64839 9.92265 3.33117 9.60876C3.17743 9.46142 3.05578 9.28391 2.97385 9.08736C2.89192 8.89081 2.85148 8.67945 2.85505 8.46654C2.85505 8.01876 3.01394 7.63765 3.33117 7.32432C3.64839 7.01043 4.03394 6.85376 4.48672 6.85376C4.94061 6.85376 5.32561 7.01043 5.64339 7.32432C5.96005 7.63765 6.11894 8.01876 6.11894 8.46654C6.11894 8.91432 5.96061 9.29543 5.64339 9.60876C5.32561 9.92265 4.94061 10.0793 4.48728 10.0793ZM4.48728 11.2521C5.2595 11.2521 6.07117 11.4138 6.92117 11.7376C7.77117 12.0615 8.19617 12.486 8.19617 13.0115V13.891H0.777832V13.011C0.777832 12.4854 1.20283 12.061 2.05283 11.7371C2.90283 11.4132 3.71394 11.2515 4.48728 11.2515V11.2521Z" fill="#4C9FF5"/>
<g id="Group_2">
<path id="Vector_2" d="M10.1989 10.3533C9.47781 10.3533 8.86503 10.1038 8.36003 9.60495C7.85503 9.10606 7.60281 8.5005 7.60281 7.78828C7.60281 7.07495 7.85503 6.46939 8.36003 5.9705C8.86503 5.47161 9.47781 5.22217 10.1989 5.22217C10.9206 5.22217 11.5334 5.47161 12.0384 5.9705C12.5434 6.46939 12.7956 7.07495 12.7956 7.78772C12.7956 8.5005 12.5434 9.10606 12.0384 9.60495C11.5334 10.1038 10.92 10.3533 10.1989 10.3533ZM10.125 11.6727C11.2067 11.6727 12.3428 11.9088 13.5328 12.3811C14.7228 12.8533 15.3178 13.4722 15.3178 14.2383V15.5216H4.93225V14.2383C4.93225 13.4722 5.5267 12.8533 6.71725 12.3811C7.90725 11.9088 9.04336 11.6727 10.125 11.6727Z" fill="#4C9FF5" stroke="white" stroke-width="0.555556"/>
</g>
</g>
</g>
<defs>
<clipPath id="clip0_7_1338">
<rect width="20" height="20" fill="white" transform="translate(0.5 0.5)"/>
</clipPath>
</defs>
</svg>
