<svg xmlns="http://www.w3.org/2000/svg" width="16" height="18" viewBox="0 0 16 18" fill="none">
  <g clip-path="url(#clip0_3_628)">
    <path d="M2.52712 2.39378C3.97862 0.942275 5.94727 0.126831 8 0.126831C10.0527 0.126831 12.0214 0.942275 13.4729 2.39378C14.9244 3.84528 15.7398 5.81393 15.7398 7.86667C15.7398 9.9194 14.9244 11.8881 13.4729 13.3396L12.4178 14.3831C11.64 15.1467 10.6311 16.128 9.39023 17.3271C9.01727 17.6877 8.51879 17.8893 8 17.8893C7.48122 17.8893 6.98274 17.6877 6.60978 17.3271L3.50756 14.3084C3.11645 13.9262 2.79023 13.6027 2.52712 13.3396C1.80837 12.6209 1.23823 11.7676 0.849247 10.8286C0.460263 9.88955 0.260056 8.88309 0.260056 7.86667C0.260056 6.85025 0.460263 5.84378 0.849247 4.90474C1.23823 3.96569 1.80837 3.11247 2.52712 2.39378ZM12.5307 3.33778C11.3293 2.13629 9.69984 1.46125 8.00076 1.46117C6.30168 1.46108 4.67216 2.13596 3.47067 3.33733C2.26918 4.5387 1.59414 6.16816 1.59406 7.86724C1.59398 9.56632 2.26886 11.1958 3.47023 12.3973L4.792 13.7013C5.52 14.4142 6.43467 15.3031 7.53689 16.3689C7.66123 16.4892 7.82745 16.5564 8.00045 16.5564C8.17345 16.5564 8.33967 16.4892 8.464 16.3689L11.4818 13.4347C11.8987 13.0258 12.248 12.6791 12.5307 12.3973C13.1256 11.8024 13.5976 11.0962 13.9196 10.3189C14.2416 9.54158 14.4073 8.70847 14.4073 7.86711C14.4073 7.02575 14.2416 6.19263 13.9196 5.41533C13.5976 4.63803 13.1256 3.93177 12.5307 3.33689V3.33778ZM8 5.44355C8.35447 5.43708 8.70667 5.50131 9.03603 5.63249C9.3654 5.76366 9.66532 5.95915 9.91828 6.20754C10.1712 6.45593 10.3722 6.75223 10.5093 7.07915C10.6465 7.40606 10.7171 7.75703 10.7171 8.11155C10.7171 8.46608 10.6465 8.81705 10.5093 9.14396C10.3722 9.47088 10.1712 9.76718 9.91828 10.0156C9.66532 10.264 9.3654 10.4594 9.03603 10.5906C8.70667 10.7218 8.35447 10.786 8 10.7796C7.30445 10.7616 6.64341 10.4727 6.15781 9.97437C5.6722 9.47606 5.40043 8.80779 5.40043 8.112C5.40043 7.41621 5.6722 6.74794 6.15781 6.24963C6.64341 5.75133 7.30445 5.46151 8 5.44355ZM8 6.77689C7.82184 6.77229 7.64455 6.80341 7.4786 6.86842C7.31265 6.93342 7.16139 7.031 7.03375 7.15539C6.90611 7.27978 6.80466 7.42846 6.7354 7.59268C6.66613 7.7569 6.63045 7.93333 6.63045 8.11155C6.63045 8.28978 6.66613 8.46621 6.7354 8.63043C6.80466 8.79464 6.90611 8.94333 7.03375 9.06772C7.16139 9.19211 7.31265 9.28969 7.4786 9.35469C7.64455 9.4197 7.82184 9.45082 8 9.44622C8.34543 9.43361 8.67251 9.28752 8.91243 9.03868C9.15235 8.78985 9.2864 8.45766 9.2864 8.112C9.2864 7.76634 9.15235 7.43415 8.91243 7.18531C8.67251 6.93648 8.34543 6.7895 8 6.77689Z" fill="#E7EEF6"/>
  </g>
  <defs>
    <clipPath id="clip0_3_628">
      <rect width="16" height="18" fill="white"/>
    </clipPath>
  </defs>
</svg>