<svg width="17" height="17" viewBox="0 0 17 17" fill="none" xmlns="http://www.w3.org/2000/svg">
<g id="SVG">
<path id="Vector" d="M8.06006 1.5C6.20341 1.50013 4.42286 2.23781 3.1101 3.55075C1.79735 4.86369 1.05993 6.64435 1.06006 8.501C1.06019 10.3576 1.79787 12.1382 3.11081 13.451C4.42375 14.7637 6.20441 15.5011 8.06106 15.501C8.98038 15.5009 9.89068 15.3198 10.74 14.9679C11.5893 14.6161 12.361 14.1004 13.011 13.4502C13.661 12.8001 14.1766 12.0284 14.5284 11.179C14.8801 10.3296 15.0611 9.41932 15.0611 8.5C15.061 7.58068 14.8799 6.67038 14.528 5.82106C14.1761 4.97175 13.6604 4.20006 13.0103 3.55005C12.3602 2.90004 11.5884 2.38444 10.7391 2.03269C9.88971 1.68094 8.97938 1.49993 8.06006 1.5ZM8.06006 14.313C6.51836 14.313 5.0398 13.7006 3.94965 12.6104C2.8595 11.5203 2.24706 10.0417 2.24706 8.5C2.24706 6.9583 2.8595 5.47974 3.94965 4.38959C5.0398 3.29944 6.51836 2.687 8.06006 2.687C9.60176 2.687 11.0803 3.29944 12.1705 4.38959C13.2606 5.47974 13.8731 6.9583 13.8731 8.5C13.8731 10.0417 13.2606 11.5203 12.1705 12.6104C11.0803 13.7006 9.60176 14.313 8.06006 14.313Z" fill="#838383"/>
<path id="Vector_2" d="M10.7901 10.478L8.56206 8.868V5C8.56206 4.96685 8.54889 4.93505 8.52545 4.91161C8.502 4.88817 8.47021 4.875 8.43706 4.875H7.68506C7.66864 4.875 7.65239 4.87823 7.63722 4.88452C7.62206 4.8908 7.60828 4.9 7.59667 4.91161C7.58506 4.92322 7.57586 4.937 7.56957 4.95216C7.56329 4.96733 7.56006 4.98358 7.56006 5V9.303C7.56006 9.343 7.57906 9.381 7.61206 9.405L10.1961 11.289C10.2521 11.329 10.3301 11.317 10.3711 11.262L10.8181 10.653C10.8278 10.6397 10.8347 10.6246 10.8386 10.6086C10.8424 10.5926 10.843 10.5759 10.8404 10.5597C10.8378 10.5434 10.832 10.5278 10.8234 10.5138C10.8148 10.4998 10.8034 10.4876 10.7901 10.478Z" fill="#838383"/>
</g>
</svg>
