<svg width="33" height="33" viewBox="0 0 33 33" fill="none" xmlns="http://www.w3.org/2000/svg">
<g id="SVG">
<path id="Vector" d="M2.45996 20.2365V21.8366C2.45996 21.9333 2.53804 22.0113 2.63472 22.0113H28.8913C29.2371 22.0113 29.5817 21.8948 29.868 21.6494C29.8891 21.6308 29.9114 21.611 29.9324 21.5912C30.2807 21.2603 30.4493 20.7472 30.4344 20.2365H2.45996ZM30.0874 19.1632C30.0874 19.1632 23.3376 11.7491 15.2084 11.3996C15.2084 11.3996 5.52747 10.6523 2.66322 11.0266C2.55292 11.0414 2.45996 11.1257 2.45996 11.2484V19.7432H30.36C30.303 19.5338 30.2125 19.3355 30.0874 19.1632ZM8.49831 16.5332C8.49831 17.1678 7.979 17.6871 7.34443 17.6871H7.17959C6.54501 17.6871 6.02571 17.1678 6.02571 16.5332V15.7685C6.02571 15.1339 6.54501 14.6146 7.17959 14.6146H7.34443C7.979 14.6146 8.49831 15.1339 8.49831 15.7685V16.5332ZM12.9019 16.5332C12.9019 17.1678 12.3826 17.6871 11.748 17.6871H11.5832C10.9486 17.6871 10.4293 17.1678 10.4293 16.5332V15.7685C10.4293 15.1339 10.9486 14.6146 11.5832 14.6146H11.748C12.3826 14.6146 12.9019 15.1339 12.9019 15.7685V16.5332ZM17.3042 16.5332C17.3042 17.1678 16.7849 17.6871 16.1503 17.6871H15.9855C15.3509 17.6871 14.8316 17.1678 14.8316 16.5332V15.7685C14.8316 15.1339 15.3509 14.6146 15.9855 14.6146H16.1503C16.7849 14.6146 17.3042 15.1339 17.3042 15.7685V16.5332ZM20.5167 13.6999C20.5068 13.7148 20.4969 13.7284 20.487 13.7446C20.0644 14.4758 21.1451 15.89 22.8989 16.9025C24.37 17.7515 25.8486 18.049 26.5365 17.692C25.1595 16.496 23.0513 14.891 20.5167 13.6999Z" fill="#ACACAF"/>
</g>
</svg>
